<mxfile host="Electron" modified="2024-05-03T01:46:13.435Z" agent="Mozilla/5.0 (Macintosh; Intel Mac OS X 10_15_7) AppleWebKit/537.36 (KHTML, like Gecko) draw.io/22.1.18 Chrome/120.0.6099.199 Electron/28.1.2 Safari/537.36" etag="5HDcDiBacV8wzA3Qq0ZP" version="22.1.18" type="device">
  <diagram name="Page-1" id="w3ilZ82q2H8l9EXgTIFh">
    <mxGraphModel dx="2049" dy="1220" grid="1" gridSize="10" guides="1" tooltips="1" connect="1" arrows="1" fold="1" page="1" pageScale="1" pageWidth="850" pageHeight="1100" math="0" shadow="0">
      <root>
        <mxCell id="0" />
        <mxCell id="1" parent="0" />
        <mxCell id="SCnfLgR4pyHtDQlJgEJW-2" value="Raindrop Sensor" style="swimlane;fontStyle=0;childLayout=stackLayout;horizontal=1;startSize=30;horizontalStack=0;resizeParent=1;resizeParentMax=0;resizeLast=0;collapsible=1;marginBottom=0;whiteSpace=wrap;html=1;" vertex="1" parent="1">
          <mxGeometry x="90" width="140" height="90" as="geometry" />
        </mxCell>
        <mxCell id="SCnfLgR4pyHtDQlJgEJW-3" value="VCC" style="text;strokeColor=none;fillColor=none;align=left;verticalAlign=middle;spacingLeft=4;spacingRight=4;overflow=hidden;points=[[0,0.5],[1,0.5]];portConstraint=eastwest;rotatable=0;whiteSpace=wrap;html=1;" vertex="1" parent="SCnfLgR4pyHtDQlJgEJW-2">
          <mxGeometry y="30" width="140" height="30" as="geometry" />
        </mxCell>
        <mxCell id="SCnfLgR4pyHtDQlJgEJW-4" value="GND" style="text;strokeColor=none;fillColor=none;align=left;verticalAlign=middle;spacingLeft=4;spacingRight=4;overflow=hidden;points=[[0,0.5],[1,0.5]];portConstraint=eastwest;rotatable=0;whiteSpace=wrap;html=1;" vertex="1" parent="SCnfLgR4pyHtDQlJgEJW-2">
          <mxGeometry y="60" width="140" height="30" as="geometry" />
        </mxCell>
        <mxCell id="SCnfLgR4pyHtDQlJgEJW-6" value="Control Module" style="swimlane;fontStyle=0;childLayout=stackLayout;horizontal=1;startSize=30;horizontalStack=0;resizeParent=1;resizeParentMax=0;resizeLast=0;collapsible=1;marginBottom=0;whiteSpace=wrap;html=1;" vertex="1" parent="1">
          <mxGeometry x="90" y="160" width="140" height="180" as="geometry" />
        </mxCell>
        <mxCell id="SCnfLgR4pyHtDQlJgEJW-7" value="VCC" style="text;strokeColor=none;fillColor=none;align=left;verticalAlign=middle;spacingLeft=4;spacingRight=4;overflow=hidden;points=[[0,0.5],[1,0.5]];portConstraint=eastwest;rotatable=0;whiteSpace=wrap;html=1;" vertex="1" parent="SCnfLgR4pyHtDQlJgEJW-6">
          <mxGeometry y="30" width="140" height="30" as="geometry" />
        </mxCell>
        <mxCell id="SCnfLgR4pyHtDQlJgEJW-8" value="GND" style="text;strokeColor=none;fillColor=none;align=left;verticalAlign=middle;spacingLeft=4;spacingRight=4;overflow=hidden;points=[[0,0.5],[1,0.5]];portConstraint=eastwest;rotatable=0;whiteSpace=wrap;html=1;" vertex="1" parent="SCnfLgR4pyHtDQlJgEJW-6">
          <mxGeometry y="60" width="140" height="30" as="geometry" />
        </mxCell>
        <mxCell id="SCnfLgR4pyHtDQlJgEJW-9" value="VCC&lt;span style=&quot;white-space: pre;&quot;&gt;&#x9;&lt;/span&gt;" style="text;strokeColor=none;fillColor=none;align=left;verticalAlign=middle;spacingLeft=4;spacingRight=4;overflow=hidden;points=[[0,0.5],[1,0.5]];portConstraint=eastwest;rotatable=0;whiteSpace=wrap;html=1;" vertex="1" parent="SCnfLgR4pyHtDQlJgEJW-6">
          <mxGeometry y="90" width="140" height="30" as="geometry" />
        </mxCell>
        <mxCell id="SCnfLgR4pyHtDQlJgEJW-10" value="GND" style="text;strokeColor=none;fillColor=none;align=left;verticalAlign=middle;spacingLeft=4;spacingRight=4;overflow=hidden;points=[[0,0.5],[1,0.5]];portConstraint=eastwest;rotatable=0;whiteSpace=wrap;html=1;" vertex="1" parent="SCnfLgR4pyHtDQlJgEJW-6">
          <mxGeometry y="120" width="140" height="30" as="geometry" />
        </mxCell>
        <mxCell id="SCnfLgR4pyHtDQlJgEJW-11" value="A0" style="text;strokeColor=none;fillColor=none;align=left;verticalAlign=middle;spacingLeft=4;spacingRight=4;overflow=hidden;points=[[0,0.5],[1,0.5]];portConstraint=eastwest;rotatable=0;whiteSpace=wrap;html=1;" vertex="1" parent="SCnfLgR4pyHtDQlJgEJW-6">
          <mxGeometry y="150" width="140" height="30" as="geometry" />
        </mxCell>
        <mxCell id="SCnfLgR4pyHtDQlJgEJW-14" value="" style="whiteSpace=wrap;html=1;rotation=90;" vertex="1" parent="1">
          <mxGeometry x="215" y="280" width="450" height="700" as="geometry" />
        </mxCell>
        <mxCell id="SCnfLgR4pyHtDQlJgEJW-15" style="edgeStyle=orthogonalEdgeStyle;rounded=0;orthogonalLoop=1;jettySize=auto;html=1;entryX=0;entryY=0.5;entryDx=0;entryDy=0;strokeWidth=2;" edge="1" parent="1" source="SCnfLgR4pyHtDQlJgEJW-4" target="SCnfLgR4pyHtDQlJgEJW-8">
          <mxGeometry relative="1" as="geometry" />
        </mxCell>
        <mxCell id="SCnfLgR4pyHtDQlJgEJW-16" style="edgeStyle=orthogonalEdgeStyle;rounded=0;orthogonalLoop=1;jettySize=auto;html=1;fillColor=#f8cecc;strokeColor=#b85450;strokeWidth=2;" edge="1" parent="1" source="SCnfLgR4pyHtDQlJgEJW-3" target="SCnfLgR4pyHtDQlJgEJW-7">
          <mxGeometry relative="1" as="geometry">
            <Array as="points">
              <mxPoint x="250" y="45" />
              <mxPoint x="250" y="205" />
            </Array>
          </mxGeometry>
        </mxCell>
        <mxCell id="SCnfLgR4pyHtDQlJgEJW-17" value="Breadboard" style="text;html=1;align=center;verticalAlign=middle;resizable=0;points=[];autosize=1;strokeColor=none;fillColor=none;" vertex="1" parent="1">
          <mxGeometry x="620" y="380" width="90" height="30" as="geometry" />
        </mxCell>
        <mxCell id="SCnfLgR4pyHtDQlJgEJW-18" value="" style="rounded=0;whiteSpace=wrap;html=1;fillColor=#CC0000;strokeColor=#b85450;fillStyle=zigzag-line;" vertex="1" parent="1">
          <mxGeometry x="100" y="420" width="680" height="10" as="geometry" />
        </mxCell>
        <mxCell id="SCnfLgR4pyHtDQlJgEJW-19" value="" style="rounded=0;whiteSpace=wrap;html=1;fillColor=#0000CC;strokeColor=#6c8ebf;fillStyle=zigzag-line;" vertex="1" parent="1">
          <mxGeometry x="100" y="440" width="680" height="10" as="geometry" />
        </mxCell>
        <mxCell id="SCnfLgR4pyHtDQlJgEJW-20" value="" style="rounded=0;whiteSpace=wrap;html=1;fillColor=#0000CC;strokeColor=#6c8ebf;fillStyle=zigzag-line;" vertex="1" parent="1">
          <mxGeometry x="100" y="830" width="680" height="10" as="geometry" />
        </mxCell>
        <mxCell id="SCnfLgR4pyHtDQlJgEJW-21" value="" style="rounded=0;whiteSpace=wrap;html=1;fillColor=#CC0000;fillStyle=zigzag-line;strokeColor=#b85450;" vertex="1" parent="1">
          <mxGeometry x="100" y="810" width="680" height="10" as="geometry" />
        </mxCell>
        <mxCell id="SCnfLgR4pyHtDQlJgEJW-29" value="MCP3008" style="swimlane;fontStyle=0;childLayout=stackLayout;horizontal=1;startSize=30;horizontalStack=0;resizeParent=1;resizeParentMax=0;resizeLast=0;collapsible=1;marginBottom=0;whiteSpace=wrap;html=1;" vertex="1" parent="1">
          <mxGeometry x="370" y="465" width="140" height="330" as="geometry" />
        </mxCell>
        <mxCell id="SCnfLgR4pyHtDQlJgEJW-30" value="VDD" style="text;strokeColor=none;fillColor=none;align=left;verticalAlign=middle;spacingLeft=4;spacingRight=4;overflow=hidden;points=[[0,0.5],[1,0.5]];portConstraint=eastwest;rotatable=0;whiteSpace=wrap;html=1;" vertex="1" parent="SCnfLgR4pyHtDQlJgEJW-29">
          <mxGeometry y="30" width="140" height="30" as="geometry" />
        </mxCell>
        <mxCell id="SCnfLgR4pyHtDQlJgEJW-31" value="VREF" style="text;strokeColor=none;fillColor=none;align=left;verticalAlign=middle;spacingLeft=4;spacingRight=4;overflow=hidden;points=[[0,0.5],[1,0.5]];portConstraint=eastwest;rotatable=0;whiteSpace=wrap;html=1;" vertex="1" parent="SCnfLgR4pyHtDQlJgEJW-29">
          <mxGeometry y="60" width="140" height="30" as="geometry" />
        </mxCell>
        <mxCell id="SCnfLgR4pyHtDQlJgEJW-32" value="AGND" style="text;strokeColor=none;fillColor=none;align=left;verticalAlign=middle;spacingLeft=4;spacingRight=4;overflow=hidden;points=[[0,0.5],[1,0.5]];portConstraint=eastwest;rotatable=0;whiteSpace=wrap;html=1;" vertex="1" parent="SCnfLgR4pyHtDQlJgEJW-29">
          <mxGeometry y="90" width="140" height="30" as="geometry" />
        </mxCell>
        <mxCell id="SCnfLgR4pyHtDQlJgEJW-33" value="DGND" style="text;strokeColor=none;fillColor=none;align=left;verticalAlign=middle;spacingLeft=4;spacingRight=4;overflow=hidden;points=[[0,0.5],[1,0.5]];portConstraint=eastwest;rotatable=0;whiteSpace=wrap;html=1;" vertex="1" parent="SCnfLgR4pyHtDQlJgEJW-29">
          <mxGeometry y="120" width="140" height="30" as="geometry" />
        </mxCell>
        <mxCell id="SCnfLgR4pyHtDQlJgEJW-34" value="CLK" style="text;strokeColor=none;fillColor=none;align=left;verticalAlign=middle;spacingLeft=4;spacingRight=4;overflow=hidden;points=[[0,0.5],[1,0.5]];portConstraint=eastwest;rotatable=0;whiteSpace=wrap;html=1;" vertex="1" parent="SCnfLgR4pyHtDQlJgEJW-29">
          <mxGeometry y="150" width="140" height="30" as="geometry" />
        </mxCell>
        <mxCell id="SCnfLgR4pyHtDQlJgEJW-35" value="DOUT" style="text;strokeColor=none;fillColor=none;align=left;verticalAlign=middle;spacingLeft=4;spacingRight=4;overflow=hidden;points=[[0,0.5],[1,0.5]];portConstraint=eastwest;rotatable=0;whiteSpace=wrap;html=1;" vertex="1" parent="SCnfLgR4pyHtDQlJgEJW-29">
          <mxGeometry y="180" width="140" height="30" as="geometry" />
        </mxCell>
        <mxCell id="SCnfLgR4pyHtDQlJgEJW-36" value="DIN" style="text;strokeColor=none;fillColor=none;align=left;verticalAlign=middle;spacingLeft=4;spacingRight=4;overflow=hidden;points=[[0,0.5],[1,0.5]];portConstraint=eastwest;rotatable=0;whiteSpace=wrap;html=1;" vertex="1" parent="SCnfLgR4pyHtDQlJgEJW-29">
          <mxGeometry y="210" width="140" height="30" as="geometry" />
        </mxCell>
        <mxCell id="SCnfLgR4pyHtDQlJgEJW-37" value="CS/SHDN" style="text;strokeColor=none;fillColor=none;align=left;verticalAlign=middle;spacingLeft=4;spacingRight=4;overflow=hidden;points=[[0,0.5],[1,0.5]];portConstraint=eastwest;rotatable=0;whiteSpace=wrap;html=1;" vertex="1" parent="SCnfLgR4pyHtDQlJgEJW-29">
          <mxGeometry y="240" width="140" height="30" as="geometry" />
        </mxCell>
        <mxCell id="SCnfLgR4pyHtDQlJgEJW-38" value="CH6" style="text;strokeColor=none;fillColor=none;align=left;verticalAlign=middle;spacingLeft=4;spacingRight=4;overflow=hidden;points=[[0,0.5],[1,0.5]];portConstraint=eastwest;rotatable=0;whiteSpace=wrap;html=1;" vertex="1" parent="SCnfLgR4pyHtDQlJgEJW-29">
          <mxGeometry y="270" width="140" height="30" as="geometry" />
        </mxCell>
        <mxCell id="SCnfLgR4pyHtDQlJgEJW-39" value="CH7" style="text;strokeColor=none;fillColor=none;align=left;verticalAlign=middle;spacingLeft=4;spacingRight=4;overflow=hidden;points=[[0,0.5],[1,0.5]];portConstraint=eastwest;rotatable=0;whiteSpace=wrap;html=1;" vertex="1" parent="SCnfLgR4pyHtDQlJgEJW-29">
          <mxGeometry y="300" width="140" height="30" as="geometry" />
        </mxCell>
        <mxCell id="SCnfLgR4pyHtDQlJgEJW-40" style="edgeStyle=orthogonalEdgeStyle;rounded=0;orthogonalLoop=1;jettySize=auto;html=1;entryX=0.062;entryY=-0.06;entryDx=0;entryDy=0;entryPerimeter=0;fillColor=#f8cecc;strokeColor=#b85450;strokeWidth=2;" edge="1" parent="1" source="SCnfLgR4pyHtDQlJgEJW-9" target="SCnfLgR4pyHtDQlJgEJW-18">
          <mxGeometry relative="1" as="geometry" />
        </mxCell>
        <mxCell id="SCnfLgR4pyHtDQlJgEJW-42" style="edgeStyle=orthogonalEdgeStyle;rounded=0;orthogonalLoop=1;jettySize=auto;html=1;entryX=0.021;entryY=-0.06;entryDx=0;entryDy=0;entryPerimeter=0;strokeWidth=2;" edge="1" parent="1" source="SCnfLgR4pyHtDQlJgEJW-10" target="SCnfLgR4pyHtDQlJgEJW-19">
          <mxGeometry relative="1" as="geometry">
            <Array as="points">
              <mxPoint x="70" y="295" />
              <mxPoint x="70" y="375" />
              <mxPoint x="114" y="375" />
            </Array>
          </mxGeometry>
        </mxCell>
        <mxCell id="SCnfLgR4pyHtDQlJgEJW-43" value="LDR Photosensitive Sensor" style="swimlane;fontStyle=0;childLayout=stackLayout;horizontal=1;startSize=30;horizontalStack=0;resizeParent=1;resizeParentMax=0;resizeLast=0;collapsible=1;marginBottom=0;whiteSpace=wrap;html=1;" vertex="1" parent="1">
          <mxGeometry x="370" y="220" width="140" height="120" as="geometry" />
        </mxCell>
        <mxCell id="SCnfLgR4pyHtDQlJgEJW-44" value="VCC" style="text;strokeColor=none;fillColor=none;align=left;verticalAlign=middle;spacingLeft=4;spacingRight=4;overflow=hidden;points=[[0,0.5],[1,0.5]];portConstraint=eastwest;rotatable=0;whiteSpace=wrap;html=1;" vertex="1" parent="SCnfLgR4pyHtDQlJgEJW-43">
          <mxGeometry y="30" width="140" height="30" as="geometry" />
        </mxCell>
        <mxCell id="SCnfLgR4pyHtDQlJgEJW-45" value="GND" style="text;strokeColor=none;fillColor=none;align=left;verticalAlign=middle;spacingLeft=4;spacingRight=4;overflow=hidden;points=[[0,0.5],[1,0.5]];portConstraint=eastwest;rotatable=0;whiteSpace=wrap;html=1;" vertex="1" parent="SCnfLgR4pyHtDQlJgEJW-43">
          <mxGeometry y="60" width="140" height="30" as="geometry" />
        </mxCell>
        <mxCell id="SCnfLgR4pyHtDQlJgEJW-46" value="A0" style="text;strokeColor=none;fillColor=none;align=left;verticalAlign=middle;spacingLeft=4;spacingRight=4;overflow=hidden;points=[[0,0.5],[1,0.5]];portConstraint=eastwest;rotatable=0;whiteSpace=wrap;html=1;" vertex="1" parent="SCnfLgR4pyHtDQlJgEJW-43">
          <mxGeometry y="90" width="140" height="30" as="geometry" />
        </mxCell>
        <mxCell id="SCnfLgR4pyHtDQlJgEJW-49" style="edgeStyle=orthogonalEdgeStyle;rounded=0;orthogonalLoop=1;jettySize=auto;html=1;entryX=0;entryY=0.5;entryDx=0;entryDy=0;fillColor=#d5e8d4;strokeColor=#82b366;" edge="1" parent="1" source="SCnfLgR4pyHtDQlJgEJW-11" target="SCnfLgR4pyHtDQlJgEJW-39">
          <mxGeometry relative="1" as="geometry">
            <Array as="points">
              <mxPoint x="260" y="325" />
              <mxPoint x="260" y="780" />
            </Array>
          </mxGeometry>
        </mxCell>
        <mxCell id="SCnfLgR4pyHtDQlJgEJW-50" style="edgeStyle=orthogonalEdgeStyle;rounded=0;orthogonalLoop=1;jettySize=auto;html=1;entryX=0;entryY=0.5;entryDx=0;entryDy=0;fillColor=#d5e8d4;strokeColor=#82b366;" edge="1" parent="1" source="SCnfLgR4pyHtDQlJgEJW-46" target="SCnfLgR4pyHtDQlJgEJW-38">
          <mxGeometry relative="1" as="geometry">
            <Array as="points">
              <mxPoint x="340" y="325" />
              <mxPoint x="340" y="750" />
            </Array>
          </mxGeometry>
        </mxCell>
        <mxCell id="SCnfLgR4pyHtDQlJgEJW-51" value="DHT11 Sensor" style="swimlane;fontStyle=0;childLayout=stackLayout;horizontal=1;startSize=30;horizontalStack=0;resizeParent=1;resizeParentMax=0;resizeLast=0;collapsible=1;marginBottom=0;whiteSpace=wrap;html=1;" vertex="1" parent="1">
          <mxGeometry x="650" y="220" width="140" height="120" as="geometry" />
        </mxCell>
        <mxCell id="SCnfLgR4pyHtDQlJgEJW-52" value="VCC" style="text;strokeColor=none;fillColor=none;align=left;verticalAlign=middle;spacingLeft=4;spacingRight=4;overflow=hidden;points=[[0,0.5],[1,0.5]];portConstraint=eastwest;rotatable=0;whiteSpace=wrap;html=1;" vertex="1" parent="SCnfLgR4pyHtDQlJgEJW-51">
          <mxGeometry y="30" width="140" height="30" as="geometry" />
        </mxCell>
        <mxCell id="SCnfLgR4pyHtDQlJgEJW-53" value="GND" style="text;strokeColor=none;fillColor=none;align=left;verticalAlign=middle;spacingLeft=4;spacingRight=4;overflow=hidden;points=[[0,0.5],[1,0.5]];portConstraint=eastwest;rotatable=0;whiteSpace=wrap;html=1;" vertex="1" parent="SCnfLgR4pyHtDQlJgEJW-51">
          <mxGeometry y="60" width="140" height="30" as="geometry" />
        </mxCell>
        <mxCell id="SCnfLgR4pyHtDQlJgEJW-54" value="A0" style="text;strokeColor=none;fillColor=none;align=left;verticalAlign=middle;spacingLeft=4;spacingRight=4;overflow=hidden;points=[[0,0.5],[1,0.5]];portConstraint=eastwest;rotatable=0;whiteSpace=wrap;html=1;" vertex="1" parent="SCnfLgR4pyHtDQlJgEJW-51">
          <mxGeometry y="90" width="140" height="30" as="geometry" />
        </mxCell>
        <mxCell id="SCnfLgR4pyHtDQlJgEJW-55" style="edgeStyle=orthogonalEdgeStyle;rounded=0;orthogonalLoop=1;jettySize=auto;html=1;entryX=0.971;entryY=0.143;entryDx=0;entryDy=0;entryPerimeter=0;fillColor=#f8cecc;strokeColor=#b85450;strokeWidth=2;" edge="1" parent="1" source="SCnfLgR4pyHtDQlJgEJW-52" target="SCnfLgR4pyHtDQlJgEJW-18">
          <mxGeometry relative="1" as="geometry">
            <Array as="points">
              <mxPoint x="810" y="265" />
              <mxPoint x="810" y="350" />
              <mxPoint x="760" y="350" />
            </Array>
          </mxGeometry>
        </mxCell>
        <mxCell id="SCnfLgR4pyHtDQlJgEJW-56" style="edgeStyle=orthogonalEdgeStyle;rounded=0;orthogonalLoop=1;jettySize=auto;html=1;entryX=0.947;entryY=0;entryDx=0;entryDy=0;entryPerimeter=0;strokeWidth=2;" edge="1" parent="1" source="SCnfLgR4pyHtDQlJgEJW-53" target="SCnfLgR4pyHtDQlJgEJW-19">
          <mxGeometry relative="1" as="geometry" />
        </mxCell>
        <mxCell id="SCnfLgR4pyHtDQlJgEJW-57" style="edgeStyle=orthogonalEdgeStyle;rounded=0;orthogonalLoop=1;jettySize=auto;html=1;entryX=0.5;entryY=0;entryDx=0;entryDy=0;fillColor=#f8cecc;strokeColor=#b85450;strokeWidth=2;" edge="1" parent="1" source="SCnfLgR4pyHtDQlJgEJW-44" target="SCnfLgR4pyHtDQlJgEJW-18">
          <mxGeometry relative="1" as="geometry">
            <Array as="points">
              <mxPoint x="530" y="265" />
              <mxPoint x="530" y="350" />
              <mxPoint x="440" y="350" />
            </Array>
          </mxGeometry>
        </mxCell>
        <mxCell id="SCnfLgR4pyHtDQlJgEJW-58" style="edgeStyle=orthogonalEdgeStyle;rounded=0;orthogonalLoop=1;jettySize=auto;html=1;entryX=0.438;entryY=-0.041;entryDx=0;entryDy=0;entryPerimeter=0;strokeWidth=2;" edge="1" parent="1" source="SCnfLgR4pyHtDQlJgEJW-45" target="SCnfLgR4pyHtDQlJgEJW-19">
          <mxGeometry relative="1" as="geometry" />
        </mxCell>
        <mxCell id="SCnfLgR4pyHtDQlJgEJW-60" value="Raspberry Pi" style="swimlane;fontStyle=0;childLayout=stackLayout;horizontal=1;startSize=30;horizontalStack=0;resizeParent=1;resizeParentMax=0;resizeLast=0;collapsible=1;marginBottom=0;whiteSpace=wrap;html=1;rotation=0;" vertex="1" parent="1">
          <mxGeometry x="370" y="910" width="140" height="240" as="geometry" />
        </mxCell>
        <mxCell id="SCnfLgR4pyHtDQlJgEJW-61" value="3v3 Power" style="text;strokeColor=none;fillColor=none;align=left;verticalAlign=middle;spacingLeft=4;spacingRight=4;overflow=hidden;points=[[0,0.5],[1,0.5]];portConstraint=eastwest;rotatable=0;whiteSpace=wrap;html=1;rotation=0;" vertex="1" parent="SCnfLgR4pyHtDQlJgEJW-60">
          <mxGeometry y="30" width="140" height="30" as="geometry" />
        </mxCell>
        <mxCell id="SCnfLgR4pyHtDQlJgEJW-62" value="GND" style="text;strokeColor=none;fillColor=none;align=left;verticalAlign=middle;spacingLeft=4;spacingRight=4;overflow=hidden;points=[[0,0.5],[1,0.5]];portConstraint=eastwest;rotatable=0;whiteSpace=wrap;html=1;rotation=0;" vertex="1" parent="SCnfLgR4pyHtDQlJgEJW-60">
          <mxGeometry y="60" width="140" height="30" as="geometry" />
        </mxCell>
        <mxCell id="SCnfLgR4pyHtDQlJgEJW-63" value="SCLK" style="text;strokeColor=none;fillColor=none;align=left;verticalAlign=middle;spacingLeft=4;spacingRight=4;overflow=hidden;points=[[0,0.5],[1,0.5]];portConstraint=eastwest;rotatable=0;whiteSpace=wrap;html=1;rotation=0;" vertex="1" parent="SCnfLgR4pyHtDQlJgEJW-60">
          <mxGeometry y="90" width="140" height="30" as="geometry" />
        </mxCell>
        <mxCell id="SCnfLgR4pyHtDQlJgEJW-71" value="MISO&amp;nbsp;" style="text;strokeColor=none;fillColor=none;align=left;verticalAlign=middle;spacingLeft=4;spacingRight=4;overflow=hidden;points=[[0,0.5],[1,0.5]];portConstraint=eastwest;rotatable=0;whiteSpace=wrap;html=1;rotation=0;" vertex="1" parent="SCnfLgR4pyHtDQlJgEJW-60">
          <mxGeometry y="120" width="140" height="30" as="geometry" />
        </mxCell>
        <mxCell id="SCnfLgR4pyHtDQlJgEJW-70" value="MOSI" style="text;strokeColor=none;fillColor=none;align=left;verticalAlign=middle;spacingLeft=4;spacingRight=4;overflow=hidden;points=[[0,0.5],[1,0.5]];portConstraint=eastwest;rotatable=0;whiteSpace=wrap;html=1;rotation=0;" vertex="1" parent="SCnfLgR4pyHtDQlJgEJW-60">
          <mxGeometry y="150" width="140" height="30" as="geometry" />
        </mxCell>
        <mxCell id="SCnfLgR4pyHtDQlJgEJW-69" value="CE0" style="text;strokeColor=none;fillColor=none;align=left;verticalAlign=middle;spacingLeft=4;spacingRight=4;overflow=hidden;points=[[0,0.5],[1,0.5]];portConstraint=eastwest;rotatable=0;whiteSpace=wrap;html=1;rotation=0;" vertex="1" parent="SCnfLgR4pyHtDQlJgEJW-60">
          <mxGeometry y="180" width="140" height="30" as="geometry" />
        </mxCell>
        <mxCell id="SCnfLgR4pyHtDQlJgEJW-72" value="GPIO22" style="text;strokeColor=none;fillColor=none;align=left;verticalAlign=middle;spacingLeft=4;spacingRight=4;overflow=hidden;points=[[0,0.5],[1,0.5]];portConstraint=eastwest;rotatable=0;whiteSpace=wrap;html=1;rotation=0;" vertex="1" parent="SCnfLgR4pyHtDQlJgEJW-60">
          <mxGeometry y="210" width="140" height="30" as="geometry" />
        </mxCell>
        <mxCell id="SCnfLgR4pyHtDQlJgEJW-64" style="edgeStyle=orthogonalEdgeStyle;rounded=0;orthogonalLoop=1;jettySize=auto;html=1;entryX=0.63;entryY=-0.257;entryDx=0;entryDy=0;entryPerimeter=0;fillColor=#f8cecc;strokeColor=#b85450;strokeWidth=2;" edge="1" parent="1" source="SCnfLgR4pyHtDQlJgEJW-30" target="SCnfLgR4pyHtDQlJgEJW-21">
          <mxGeometry relative="1" as="geometry">
            <Array as="points">
              <mxPoint x="528" y="510" />
            </Array>
          </mxGeometry>
        </mxCell>
        <mxCell id="SCnfLgR4pyHtDQlJgEJW-66" style="edgeStyle=orthogonalEdgeStyle;rounded=0;orthogonalLoop=1;jettySize=auto;html=1;entryX=0.668;entryY=-0.187;entryDx=0;entryDy=0;entryPerimeter=0;fillColor=#f8cecc;strokeColor=#b85450;strokeWidth=2;" edge="1" parent="1" source="SCnfLgR4pyHtDQlJgEJW-31" target="SCnfLgR4pyHtDQlJgEJW-21">
          <mxGeometry relative="1" as="geometry">
            <Array as="points">
              <mxPoint x="554" y="540" />
              <mxPoint x="554" y="682" />
            </Array>
          </mxGeometry>
        </mxCell>
        <mxCell id="SCnfLgR4pyHtDQlJgEJW-67" style="edgeStyle=orthogonalEdgeStyle;rounded=0;orthogonalLoop=1;jettySize=auto;html=1;entryX=0.336;entryY=-0.143;entryDx=0;entryDy=0;entryPerimeter=0;strokeWidth=2;" edge="1" parent="1" source="SCnfLgR4pyHtDQlJgEJW-32" target="SCnfLgR4pyHtDQlJgEJW-20">
          <mxGeometry relative="1" as="geometry">
            <Array as="points">
              <mxPoint x="328" y="570" />
              <mxPoint x="328" y="707" />
              <mxPoint x="329" y="707" />
            </Array>
          </mxGeometry>
        </mxCell>
        <mxCell id="SCnfLgR4pyHtDQlJgEJW-68" style="edgeStyle=orthogonalEdgeStyle;rounded=0;orthogonalLoop=1;jettySize=auto;html=1;entryX=0.275;entryY=-0.057;entryDx=0;entryDy=0;entryPerimeter=0;strokeWidth=2;" edge="1" parent="1" source="SCnfLgR4pyHtDQlJgEJW-33" target="SCnfLgR4pyHtDQlJgEJW-20">
          <mxGeometry relative="1" as="geometry">
            <Array as="points">
              <mxPoint x="287" y="600" />
            </Array>
          </mxGeometry>
        </mxCell>
        <mxCell id="SCnfLgR4pyHtDQlJgEJW-73" style="edgeStyle=orthogonalEdgeStyle;rounded=0;orthogonalLoop=1;jettySize=auto;html=1;entryX=0.707;entryY=1.1;entryDx=0;entryDy=0;entryPerimeter=0;strokeWidth=2;fillColor=#f8cecc;strokeColor=#b85450;" edge="1" parent="1" source="SCnfLgR4pyHtDQlJgEJW-61" target="SCnfLgR4pyHtDQlJgEJW-21">
          <mxGeometry relative="1" as="geometry" />
        </mxCell>
        <mxCell id="SCnfLgR4pyHtDQlJgEJW-74" style="edgeStyle=orthogonalEdgeStyle;rounded=0;orthogonalLoop=1;jettySize=auto;html=1;entryX=0.75;entryY=1;entryDx=0;entryDy=0;strokeWidth=2;" edge="1" parent="1" source="SCnfLgR4pyHtDQlJgEJW-62" target="SCnfLgR4pyHtDQlJgEJW-20">
          <mxGeometry relative="1" as="geometry">
            <Array as="points">
              <mxPoint x="610" y="985" />
            </Array>
          </mxGeometry>
        </mxCell>
        <mxCell id="SCnfLgR4pyHtDQlJgEJW-75" style="edgeStyle=orthogonalEdgeStyle;rounded=0;orthogonalLoop=1;jettySize=auto;html=1;entryX=0;entryY=0.5;entryDx=0;entryDy=0;fillColor=#e1d5e7;strokeColor=#9673a6;" edge="1" parent="1" source="SCnfLgR4pyHtDQlJgEJW-34" target="SCnfLgR4pyHtDQlJgEJW-63">
          <mxGeometry relative="1" as="geometry">
            <Array as="points">
              <mxPoint x="80" y="630" />
              <mxPoint x="80" y="1015" />
            </Array>
          </mxGeometry>
        </mxCell>
        <mxCell id="SCnfLgR4pyHtDQlJgEJW-76" style="edgeStyle=orthogonalEdgeStyle;rounded=0;orthogonalLoop=1;jettySize=auto;html=1;entryX=0;entryY=0.5;entryDx=0;entryDy=0;fillColor=#d5e8d4;strokeColor=#82b366;" edge="1" parent="1" source="SCnfLgR4pyHtDQlJgEJW-35" target="SCnfLgR4pyHtDQlJgEJW-71">
          <mxGeometry relative="1" as="geometry">
            <Array as="points">
              <mxPoint x="60" y="660" />
              <mxPoint x="60" y="1045" />
            </Array>
          </mxGeometry>
        </mxCell>
        <mxCell id="SCnfLgR4pyHtDQlJgEJW-77" style="edgeStyle=orthogonalEdgeStyle;rounded=0;orthogonalLoop=1;jettySize=auto;html=1;entryX=0;entryY=0.5;entryDx=0;entryDy=0;fillColor=#ffe6cc;strokeColor=#d79b00;" edge="1" parent="1" source="SCnfLgR4pyHtDQlJgEJW-36" target="SCnfLgR4pyHtDQlJgEJW-70">
          <mxGeometry relative="1" as="geometry">
            <Array as="points">
              <mxPoint x="40" y="690" />
              <mxPoint x="40" y="1075" />
            </Array>
          </mxGeometry>
        </mxCell>
        <mxCell id="SCnfLgR4pyHtDQlJgEJW-78" style="edgeStyle=orthogonalEdgeStyle;rounded=0;orthogonalLoop=1;jettySize=auto;html=1;entryX=0;entryY=0.5;entryDx=0;entryDy=0;fillColor=#dae8fc;strokeColor=#6c8ebf;" edge="1" parent="1" source="SCnfLgR4pyHtDQlJgEJW-37" target="SCnfLgR4pyHtDQlJgEJW-69">
          <mxGeometry relative="1" as="geometry">
            <Array as="points">
              <mxPoint x="20" y="720" />
              <mxPoint x="20" y="1105" />
            </Array>
          </mxGeometry>
        </mxCell>
        <mxCell id="SCnfLgR4pyHtDQlJgEJW-79" style="edgeStyle=orthogonalEdgeStyle;rounded=0;orthogonalLoop=1;jettySize=auto;html=1;entryX=1;entryY=0.5;entryDx=0;entryDy=0;fillColor=#d5e8d4;strokeColor=#82b366;" edge="1" parent="1" source="SCnfLgR4pyHtDQlJgEJW-54" target="SCnfLgR4pyHtDQlJgEJW-72">
          <mxGeometry relative="1" as="geometry">
            <Array as="points">
              <mxPoint x="830" y="325" />
              <mxPoint x="830" y="1135" />
            </Array>
          </mxGeometry>
        </mxCell>
      </root>
    </mxGraphModel>
  </diagram>
</mxfile>
